<svg xmlns="http://www.w3.org/2000/svg" width="297" height="292" viewBox="0 0 297 292" version="1.1"><path d="M 135.616 15.025 C 109.906 17.974, 89.274 24.634, 75.580 34.406 C 68.665 39.340, 64.851 43.823, 61.910 50.470 C 60.012 54.761, 59.957 57.201, 60.224 124.704 L 60.500 194.500 63.240 199.161 C 71.415 213.068, 93.021 224.230, 122.500 229.777 C 129.319 231.060, 137.074 231.468, 154.500 231.463 C 174.322 231.457, 179.042 231.146, 188.665 229.214 C 221.823 222.556, 243.472 209.357, 248.007 193.035 C 248.604 190.885, 248.991 163.408, 248.994 122.928 C 249.001 44.924, 249.691 50.461, 238.595 39.477 C 227.436 28.431, 210.385 21.108, 186.020 16.896 C 172.777 14.607, 147.455 13.667, 135.616 15.025 M 129.585 29.492 C 107.605 32.626, 87.187 40.816, 78.679 49.912 C 73.566 55.379, 72.787 58.753, 75.449 63.901 C 80.422 73.518, 101.463 83.366, 126 87.562 C 140.091 89.972, 168.637 90.009, 182 87.636 C 203.692 83.783, 221.396 76.656, 229.560 68.492 C 236.871 61.182, 236.728 56.284, 228.989 48.811 C 220.686 40.794, 204.077 33.926, 184.500 30.415 C 172.011 28.176, 142.319 27.677, 129.585 29.492 M 233.175 83.287 C 231.056 85.844, 214.260 93.656, 205 96.392 C 187.286 101.626, 180.232 102.477, 154.500 102.485 C 133.605 102.491, 129.074 102.203, 119.476 100.259 C 102.516 96.824, 86.290 90.826, 77.846 84.872 C 76.386 83.842, 74.923 83, 74.596 83 C 74.268 83, 74 90.088, 74 98.750 L 74 114.500 77.405 117.216 C 87.241 125.065, 104.295 131.664, 123.644 135.109 C 140.191 138.054, 168.565 138.072, 185 135.147 C 204.768 131.629, 222.653 124.670, 230.860 117.303 L 235.096 113.500 234.798 97.594 C 234.548 84.224, 234.289 81.943, 233.175 83.287 M 215.250 105.170 C 209.357 108.005, 209 108.376, 209 111.656 C 209 115.559, 209.370 115.571, 217.750 111.949 C 221.750 110.221, 222 109.873, 222 106.056 C 222 103.825, 221.887 102.037, 221.750 102.082 C 221.613 102.126, 218.688 103.516, 215.250 105.170 M 74 139.800 L 74 155.830 78.926 159.446 C 104.730 178.388, 160.756 184.279, 201.848 172.371 C 212.661 169.238, 225.344 163.151, 230.750 158.500 L 235 154.844 235 139.402 L 235 123.960 229.750 127.034 C 188.450 151.221, 114.781 150.490, 76.664 125.515 L 74 123.770 74 139.800 M 215.250 146.170 C 209.392 148.988, 209 149.391, 209 152.589 C 209 154.465, 209.437 156, 209.971 156 C 210.506 156, 213.431 154.900, 216.471 153.555 C 221.865 151.170, 222 151.011, 222 147.055 C 222 144.825, 221.887 143.037, 221.750 143.082 C 221.613 143.126, 218.688 144.516, 215.250 146.170 M 74 177.451 C 74 191.977, 74.657 193.946, 81.326 199.411 C 86.778 203.879, 100.157 210.159, 110 212.872 C 138.214 220.649, 177.793 220.037, 203.500 211.427 C 217.965 206.582, 229.087 199.832, 232.978 193.536 C 234.846 190.512, 235.032 188.875, 234.780 177.634 L 234.500 165.104 229 168.540 C 218.416 175.154, 198.825 181.468, 180.500 184.172 C 169.244 185.833, 138.200 185.811, 127.500 184.134 C 108.762 181.198, 87.796 174.041, 77.250 166.980 L 74 164.804 74 177.451 M 214.750 187.823 C 209.235 190.343, 209 190.605, 209 194.211 L 209 197.971 214.250 195.880 C 217.137 194.730, 220.063 193.563, 220.750 193.287 C 222.070 192.758, 222.548 184.928, 221.250 185.098 C 220.838 185.152, 217.912 186.378, 214.750 187.823 M 68.314 266.950 C 62.886 270.260, 61.427 276.057, 64.517 282.033 C 67.062 286.955, 70.895 288.227, 82.021 287.840 C 92.890 287.462, 95.047 286.405, 97.687 280.164 C 99.510 275.856, 98.057 271.068, 93.857 267.533 C 91.089 265.204, 90.069 265, 81.173 265.004 C 73.360 265.007, 70.888 265.381, 68.314 266.950 M 101 276.500 C 101 287.333, 101.116 288, 103 288 C 104.860 288, 105 287.333, 105 278.500 L 105 269 112.418 269 C 121.433 269, 123 269.529, 123 272.572 C 123 275.681, 120.313 276.990, 113.816 277.046 L 108.500 277.092 114.500 282.544 C 119.026 286.657, 121.237 287.987, 123.500 287.957 L 126.500 287.917 122.750 284.602 C 120.688 282.780, 119 281.028, 119 280.710 C 119 280.393, 120.193 279.990, 121.651 279.816 C 125.233 279.389, 128.457 274.957, 127.618 271.615 C 126.229 266.080, 123.647 265, 111.811 265 L 101 265 101 276.500 M 136.503 274.250 C 133.261 279.337, 129.971 284.512, 129.190 285.750 C 127.856 287.864, 127.922 288, 130.296 288 C 132.390 288, 133.799 286.450, 138.556 278.911 L 144.291 269.822 147.146 274.408 C 148.716 276.930, 150 279.220, 150 279.497 C 150 279.774, 147.509 280, 144.465 280 C 139.240 280, 138.990 280.112, 140 282 C 140.894 283.671, 142.094 284, 147.295 284 C 152.436 284, 153.736 284.348, 154.768 286 C 156.164 288.236, 160.535 288.837, 159.707 286.679 C 159.428 285.953, 156.237 280.778, 152.616 275.179 C 148.244 268.421, 145.420 265, 144.214 265 C 143.012 265, 140.397 268.137, 136.503 274.250 M 165.096 266.265 C 156.731 270.564, 156.731 282.436, 165.096 286.735 C 168.227 288.344, 182.207 288.393, 183.800 286.800 C 186.127 284.473, 184.917 284, 176.635 284 C 166.506 284, 163 282.072, 163 276.500 C 163 271.167, 166.592 269, 175.435 269 C 182.061 269, 185 268.017, 185 265.800 C 185 264.503, 167.741 264.905, 165.096 266.265 M 188.217 276.250 L 188.500 287.500 199.197 287.783 C 209.084 288.045, 209.976 287.913, 210.982 286.033 C 212.043 284.052, 211.815 284, 202.035 284 L 192 284 192 274.500 C 192 265.616, 191.868 265, 189.967 265 C 188.027 265, 187.947 265.514, 188.217 276.250 M 218.388 265.980 C 214.723 267.461, 212 271.907, 212 276.412 C 212 284.472, 216.947 288, 228.250 288 C 235.057 288, 238 287.034, 238 284.800 C 238 284.360, 234.275 284, 229.723 284 C 223.849 284, 220.799 283.548, 219.223 282.443 C 215.389 279.758, 216.737 279, 225.345 279 C 232.160 279, 233.994 278.665, 235.345 277.171 C 236.255 276.165, 237 275.040, 237 274.671 C 237 274.302, 232.500 274, 227 274 C 221.401 274, 217 273.585, 217 273.057 C 217 270.643, 221.665 269, 228.523 269 C 235.063 269, 238 268.008, 238 265.800 C 238 264.736, 221.083 264.891, 218.388 265.980 M 242 266.833 C 242 267.842, 242.651 268.667, 243.446 268.667 C 244.538 268.667, 244.652 268.218, 243.911 266.833 C 243.371 265.825, 242.720 265, 242.465 265 C 242.209 265, 242 265.825, 242 266.833 M 69.455 271.455 C 66.510 274.399, 66.312 277.929, 68.911 281.139 C 70.611 283.240, 71.796 283.537, 79.662 283.840 C 87.506 284.142, 88.810 283.937, 91.250 282.018 C 93.229 280.461, 93.996 278.964, 93.985 276.677 C 93.955 270.617, 91.015 269, 80.020 269 C 72.742 269, 71.657 269.252, 69.455 271.455" stroke="none" fill="#f1f3f5" fill-rule="evenodd"/><path d="M 0 144.345 C 0 282.914, 0.073 288.756, 1.829 290.345 C 3.513 291.869, 15.244 292, 150.204 292 L 296.750 292 297.375 288.875 C 297.719 287.156, 298 221.456, 298 142.875 L 298 0 149 0 L 0 0 0 144.345 M 0.487 145 C 0.487 224.475, 0.605 256.988, 0.750 217.250 C 0.895 177.513, 0.895 112.488, 0.750 72.750 C 0.605 33.013, 0.487 65.525, 0.487 145 M 135.616 15.025 C 109.906 17.974, 89.274 24.634, 75.580 34.406 C 68.665 39.340, 64.851 43.823, 61.910 50.470 C 60.012 54.761, 59.957 57.201, 60.224 124.704 L 60.500 194.500 63.240 199.161 C 71.415 213.068, 93.021 224.230, 122.500 229.777 C 129.319 231.060, 137.074 231.468, 154.500 231.463 C 174.322 231.457, 179.042 231.146, 188.665 229.214 C 221.823 222.556, 243.472 209.357, 248.007 193.035 C 248.604 190.885, 248.991 163.408, 248.994 122.928 C 249.001 44.924, 249.691 50.461, 238.595 39.477 C 227.436 28.431, 210.385 21.108, 186.020 16.896 C 172.777 14.607, 147.455 13.667, 135.616 15.025 M 129.585 29.492 C 107.605 32.626, 87.187 40.816, 78.679 49.912 C 73.566 55.379, 72.787 58.753, 75.449 63.901 C 80.422 73.518, 101.463 83.366, 126 87.562 C 140.091 89.972, 168.637 90.009, 182 87.636 C 203.692 83.783, 221.396 76.656, 229.560 68.492 C 236.871 61.182, 236.728 56.284, 228.989 48.811 C 220.686 40.794, 204.077 33.926, 184.500 30.415 C 172.011 28.176, 142.319 27.677, 129.585 29.492 M 233.175 83.287 C 231.056 85.844, 214.260 93.656, 205 96.392 C 187.286 101.626, 180.232 102.477, 154.500 102.485 C 133.605 102.491, 129.074 102.203, 119.476 100.259 C 102.516 96.824, 86.290 90.826, 77.846 84.872 C 76.386 83.842, 74.923 83, 74.596 83 C 74.268 83, 74 90.088, 74 98.750 L 74 114.500 77.405 117.216 C 87.241 125.065, 104.295 131.664, 123.644 135.109 C 140.191 138.054, 168.565 138.072, 185 135.147 C 204.768 131.629, 222.653 124.670, 230.860 117.303 L 235.096 113.500 234.798 97.594 C 234.548 84.224, 234.289 81.943, 233.175 83.287 M 215.250 105.170 C 209.357 108.005, 209 108.376, 209 111.656 C 209 115.559, 209.370 115.571, 217.750 111.949 C 221.750 110.221, 222 109.873, 222 106.056 C 222 103.825, 221.887 102.037, 221.750 102.082 C 221.613 102.126, 218.688 103.516, 215.250 105.170 M 74 139.800 L 74 155.830 78.926 159.446 C 104.730 178.388, 160.756 184.279, 201.848 172.371 C 212.661 169.238, 225.344 163.151, 230.750 158.500 L 235 154.844 235 139.402 L 235 123.960 229.750 127.034 C 188.450 151.221, 114.781 150.490, 76.664 125.515 L 74 123.770 74 139.800 M 215.250 146.170 C 209.392 148.988, 209 149.391, 209 152.589 C 209 154.465, 209.437 156, 209.971 156 C 210.506 156, 213.431 154.900, 216.471 153.555 C 221.865 151.170, 222 151.011, 222 147.055 C 222 144.825, 221.887 143.037, 221.750 143.082 C 221.613 143.126, 218.688 144.516, 215.250 146.170 M 74 177.451 C 74 191.977, 74.657 193.946, 81.326 199.411 C 86.778 203.879, 100.157 210.159, 110 212.872 C 138.214 220.649, 177.793 220.037, 203.500 211.427 C 217.965 206.582, 229.087 199.832, 232.978 193.536 C 234.846 190.512, 235.032 188.875, 234.780 177.634 L 234.500 165.104 229 168.540 C 218.416 175.154, 198.825 181.468, 180.500 184.172 C 169.244 185.833, 138.200 185.811, 127.500 184.134 C 108.762 181.198, 87.796 174.041, 77.250 166.980 L 74 164.804 74 177.451 M 214.750 187.823 C 209.235 190.343, 209 190.605, 209 194.211 L 209 197.971 214.250 195.880 C 217.137 194.730, 220.063 193.563, 220.750 193.287 C 222.070 192.758, 222.548 184.928, 221.250 185.098 C 220.838 185.152, 217.912 186.378, 214.750 187.823 M 68.314 266.950 C 62.886 270.260, 61.427 276.057, 64.517 282.033 C 67.062 286.955, 70.895 288.227, 82.021 287.840 C 92.890 287.462, 95.047 286.405, 97.687 280.164 C 99.510 275.856, 98.057 271.068, 93.857 267.533 C 91.089 265.204, 90.069 265, 81.173 265.004 C 73.360 265.007, 70.888 265.381, 68.314 266.950 M 101 276.500 C 101 287.333, 101.116 288, 103 288 C 104.860 288, 105 287.333, 105 278.500 L 105 269 112.418 269 C 121.433 269, 123 269.529, 123 272.572 C 123 275.681, 120.313 276.990, 113.816 277.046 L 108.500 277.092 114.500 282.544 C 119.026 286.657, 121.237 287.987, 123.500 287.957 L 126.500 287.917 122.750 284.602 C 120.688 282.780, 119 281.028, 119 280.710 C 119 280.393, 120.193 279.990, 121.651 279.816 C 125.233 279.389, 128.457 274.957, 127.618 271.615 C 126.229 266.080, 123.647 265, 111.811 265 L 101 265 101 276.500 M 136.503 274.250 C 133.261 279.337, 129.971 284.512, 129.190 285.750 C 127.856 287.864, 127.922 288, 130.296 288 C 132.390 288, 133.799 286.450, 138.556 278.911 L 144.291 269.822 147.146 274.408 C 148.716 276.930, 150 279.220, 150 279.497 C 150 279.774, 147.509 280, 144.465 280 C 139.240 280, 138.990 280.112, 140 282 C 140.894 283.671, 142.094 284, 147.295 284 C 152.436 284, 153.736 284.348, 154.768 286 C 156.164 288.236, 160.535 288.837, 159.707 286.679 C 159.428 285.953, 156.237 280.778, 152.616 275.179 C 148.244 268.421, 145.420 265, 144.214 265 C 143.012 265, 140.397 268.137, 136.503 274.250 M 165.096 266.265 C 156.731 270.564, 156.731 282.436, 165.096 286.735 C 168.227 288.344, 182.207 288.393, 183.800 286.800 C 186.127 284.473, 184.917 284, 176.635 284 C 166.506 284, 163 282.072, 163 276.500 C 163 271.167, 166.592 269, 175.435 269 C 182.061 269, 185 268.017, 185 265.800 C 185 264.503, 167.741 264.905, 165.096 266.265 M 188.217 276.250 L 188.500 287.500 199.197 287.783 C 209.084 288.045, 209.976 287.913, 210.982 286.033 C 212.043 284.052, 211.815 284, 202.035 284 L 192 284 192 274.500 C 192 265.616, 191.868 265, 189.967 265 C 188.027 265, 187.947 265.514, 188.217 276.250 M 218.388 265.980 C 214.723 267.461, 212 271.907, 212 276.412 C 212 284.472, 216.947 288, 228.250 288 C 235.057 288, 238 287.034, 238 284.800 C 238 284.360, 234.275 284, 229.723 284 C 223.849 284, 220.799 283.548, 219.223 282.443 C 215.389 279.758, 216.737 279, 225.345 279 C 232.160 279, 233.994 278.665, 235.345 277.171 C 236.255 276.165, 237 275.040, 237 274.671 C 237 274.302, 232.500 274, 227 274 C 221.401 274, 217 273.585, 217 273.057 C 217 270.643, 221.665 269, 228.523 269 C 235.063 269, 238 268.008, 238 265.800 C 238 264.736, 221.083 264.891, 218.388 265.980 M 242 266.833 C 242 267.842, 242.651 268.667, 243.446 268.667 C 244.538 268.667, 244.652 268.218, 243.911 266.833 C 243.371 265.825, 242.720 265, 242.465 265 C 242.209 265, 242 265.825, 242 266.833 M 69.455 271.455 C 66.510 274.399, 66.312 277.929, 68.911 281.139 C 70.611 283.240, 71.796 283.537, 79.662 283.840 C 87.506 284.142, 88.810 283.937, 91.250 282.018 C 93.229 280.461, 93.996 278.964, 93.985 276.677 C 93.955 270.617, 91.015 269, 80.020 269 C 72.742 269, 71.657 269.252, 69.455 271.455" stroke="none" fill="#ea1c24" fill-rule="evenodd"/></svg>